<?xml version="1.0" encoding="UTF-8"?>
<svg xmlns="http://www.w3.org/2000/svg" viewBox="0 0 64 64" width="64" height="64">
  <defs><linearGradient id="biz-main" x1="16" y1="8" x2="48" y2="56" gradientUnits="userSpaceOnUse"><stop stop-color="#80CBFF"/><stop offset="0.5" stop-color="#5289F4"/><stop offset="1" stop-color="#6951D7"/></linearGradient><linearGradient id="biz-side" x1="45" y1="20" x2="57" y2="55" gradientUnits="userSpaceOnUse"><stop stop-color="#A17BFF"/><stop offset="1" stop-color="#6544C4"/></linearGradient></defs>
  <path d="M14 9h34v47H14z" fill="#14294B" opacity="0.17" transform="translate(0 2)"/>
  <path d="M14 8h34v47H14z" fill="url(#biz-main)" stroke="#14294B" stroke-width="2.8" stroke-linejoin="round"/>
  <path d="m48 19 9 5.2V55h-9V19Z" fill="url(#biz-side)" stroke="#14294B" stroke-width="2.6" stroke-linejoin="round"/>
  <path d="M20 15h8v7h-8zM34 15h8v7h-8zM20 27h8v7h-8zM34 27h8v7h-8zM20 39h8v7h-8zM34 39h8v7h-8z" fill="#D7F7FF" stroke="#14294B" stroke-width="1.7"/>
  <path d="M19 11.8h19" stroke="#FFF" stroke-width="2.8" stroke-linecap="round" opacity="0.56"/>
  <path d="M8 55h50" stroke="#14294B" stroke-width="3.2" stroke-linecap="round"/>
</svg>
